# xmcd CD database file
#
# Track frame offsets:
#	150
#	3440
#	21825
#	43800
#	61340
#	82668
#	102375
#	121008
#	141310
#	143675
#	164343
#	183450
#	202798
#	225813
#	242880
#
# Disc length: 3349 seconds
#
# Revision: 1
# Processed by: cddbd v1.5.2PL0 Copyright (c) Steve Scherf et al.
# Submitted via: CDex 1.70beta3
#
DISCID=b80d130f
DTITLE=田村ゆかり - 十六夜の月、カナリアの恋
DYEAR=2008
DGENRE=Seiyu(J)
TTITLE0=Overtrue ～Secret new moon～
TTITLE1=Swing Heart
TTITLE2=片想いルーレット
TTITLE3=Non-Stopping Train
TTITLE4=星空のSpica
TTITLE5=Sand Mark
TTITLE6=Petite limiere
TTITLE7=Beautiful Amulet
TTITLE8=Interlude ～moonlight flower～
TTITLE9=お気に召すまま
TTITLE10=チェルシーガール
TTITLE11=恋は波のように
TTITLE12=上弦の月
TTITLE13=Happy Life
TTITLE14=Finale ～Sweet full moon～
EXTD=YEAR: 2008
EXTT0=
EXTT1=
EXTT2=
EXTT3=
EXTT4=
EXTT5=
EXTT6=
EXTT7=
EXTT8=
EXTT9=
EXTT10=
EXTT11=
EXTT12=
EXTT13=
EXTT14=
PLAYORDER=
